<?xml version="1.0" standalone="no"?>
<!DOCTYPE svg PUBLIC "-//W3C//DTD SVG 20010904//EN"
 "http://www.w3.org/TR/2001/REC-SVG-20010904/DTD/svg10.dtd">
<svg version="1.0" xmlns="http://www.w3.org/2000/svg"
 width="101.000000pt" height="101.000000pt" viewBox="0 0 101.000000 101.000000"
 preserveAspectRatio="xMidYMid meet">
<metadata>
Created by potrace 1.14, written by Peter Selinger 2001-2017
</metadata>
<g transform="translate(0.000000,101.000000) scale(0.100000,-0.100000)"
fill="#000000" stroke="none">
<path d="M116 990 c-51 -26 -94 -75 -107 -122 -6 -24 -9 -169 -7 -387 l3 -349
31 -44 c18 -23 51 -53 75 -66 42 -22 47 -22 395 -22 348 1 352 1 395 24 24 13
58 42 74 66 l30 42 3 346 c2 253 0 359 -9 391 -15 55 -73 113 -127 129 -27 8
-146 12 -378 12 -315 -1 -342 -2 -378 -20z"/>
</g>
</svg>
