<?xml version="1.0" standalone="no"?>
<!DOCTYPE svg PUBLIC "-//W3C//DTD SVG 20010904//EN"
 "http://www.w3.org/TR/2001/REC-SVG-20010904/DTD/svg10.dtd">
<svg version="1.0" xmlns="http://www.w3.org/2000/svg"
 width="418.000000pt" height="418.000000pt" viewBox="0 0 418.000000 418.000000"
 preserveAspectRatio="xMidYMid meet">
<metadata>
Created by potrace 1.14, written by Peter Selinger 2001-2017
</metadata>
<g transform="translate(0.000000,418.000000) scale(0.100000,-0.100000)"
fill="#000000" stroke="none">
<path d="M2320 4153 c-51 -16 -58 -26 -70 -92 -7 -36 -14 -75 -16 -86 -2 -11
-6 -36 -9 -55 -3 -19 -7 -46 -10 -60 -3 -14 -8 -40 -11 -59 -6 -39 -10 -56
-18 -91 -3 -14 -8 -43 -11 -64 -3 -22 -8 -42 -10 -45 -3 -2 -47 -6 -98 -7
-154 -4 -329 -52 -439 -121 -21 -13 -40 -23 -43 -23 -6 0 -40 -25 -99 -70 -26
-20 -146 -140 -171 -171 -113 -138 -195 -337 -211 -509 -4 -42 -11 -70 -18
-70 -7 0 -26 -12 -44 -27 l-33 -28 -1 -112 c-2 -129 2 -138 83 -175 39 -17 49
-27 50 -47 1 -14 3 -35 4 -46 11 -82 16 -122 20 -172 3 -32 7 -74 10 -93 5
-37 12 -106 19 -180 3 -25 7 -58 10 -75 3 -16 7 -59 11 -95 3 -36 7 -81 10
-100 2 -19 7 -60 10 -90 3 -30 7 -73 10 -95 2 -22 7 -65 10 -95 3 -30 8 -68
10 -85 4 -29 11 -87 20 -190 3 -27 7 -63 10 -80 2 -16 7 -55 10 -85 3 -30 7
-71 9 -90 3 -19 7 -62 10 -95 4 -33 8 -76 11 -95 2 -19 7 -66 11 -105 3 -38 7
-77 9 -86 2 -9 6 -40 10 -70 4 -30 11 -60 17 -66 15 -19 125 -68 193 -86 71
-19 170 -37 240 -44 74 -8 501 -7 570 1 152 17 322 65 393 110 35 23 38 31 47
117 3 31 7 65 9 75 2 11 7 60 11 109 4 50 8 92 10 95 2 3 6 39 10 80 4 41 8
89 10 105 3 17 7 59 11 95 3 36 8 72 9 81 2 9 6 52 10 95 4 43 9 87 11 97 2
10 6 48 9 85 3 37 8 74 10 82 2 8 7 49 10 90 4 41 9 89 11 105 2 17 6 55 9 85
3 30 7 69 10 85 2 17 7 57 10 90 6 64 12 118 20 175 3 19 7 62 10 95 10 115
22 219 30 260 2 11 4 23 4 26 1 4 26 19 57 34 32 16 59 36 64 49 4 13 8 68 8
123 -1 92 -3 103 -24 126 -13 14 -33 28 -44 32 -11 3 -20 9 -21 13 -1 4 -2 18
-3 32 -33 337 -226 631 -530 804 -41 24 -74 45 -72 47 2 2 7 25 10 51 4 26 8
53 11 60 2 7 7 31 10 53 6 45 39 234 54 309 11 61 8 83 -19 111 -36 38 -174
67 -230 48z"/>
</g>
</svg>
